<mxfile host="app.diagrams.net" agent="Mozilla/5.0 (Windows NT 10.0; Win64; x64; rv:136.0) Gecko/20100101 Firefox/136.0" version="26.0.11" pages="4">
  <diagram name="1Nf" id="YbdF6OGURDyMBWo5s-L2">
    <mxGraphModel grid="0" page="0" gridSize="10" guides="1" tooltips="1" connect="1" arrows="1" fold="1" pageScale="1" pageWidth="850" pageHeight="1100" math="0" shadow="0">
      <root>
        <mxCell id="0" />
        <mxCell id="1" parent="0" />
        <mxCell id="6bMxqcvjfo6CzmTFK3iw-1" value="" style="rounded=0;whiteSpace=wrap;html=1;" vertex="1" parent="1">
          <mxGeometry x="-500" y="-341" width="142" height="230" as="geometry" />
        </mxCell>
        <mxCell id="Nv1itEVapJG6KKWH7zvD-8" style="edgeStyle=none;curved=1;rounded=0;orthogonalLoop=1;jettySize=auto;html=1;exitX=1;exitY=0.5;exitDx=0;exitDy=0;entryX=0;entryY=0.5;entryDx=0;entryDy=0;fontSize=12;startSize=8;endSize=8;" edge="1" parent="1" source="Nv1itEVapJG6KKWH7zvD-1" target="Nv1itEVapJG6KKWH7zvD-4">
          <mxGeometry relative="1" as="geometry" />
        </mxCell>
        <mxCell id="Nv1itEVapJG6KKWH7zvD-1" value="Sno" style="ellipse;whiteSpace=wrap;html=1;strokeColor=default;align=center;verticalAlign=middle;fontFamily=Helvetica;fontSize=12;fontColor=default;fillColor=default;" vertex="1" parent="1">
          <mxGeometry x="-485" y="-326" width="110" height="50" as="geometry" />
        </mxCell>
        <mxCell id="Nv1itEVapJG6KKWH7zvD-9" style="edgeStyle=none;curved=1;rounded=0;orthogonalLoop=1;jettySize=auto;html=1;exitX=1;exitY=0.5;exitDx=0;exitDy=0;entryX=0;entryY=0.5;entryDx=0;entryDy=0;fontSize=12;startSize=8;endSize=8;" edge="1" parent="1" source="Nv1itEVapJG6KKWH7zvD-2" target="Nv1itEVapJG6KKWH7zvD-7">
          <mxGeometry relative="1" as="geometry" />
        </mxCell>
        <mxCell id="Nv1itEVapJG6KKWH7zvD-2" value="Pno" style="ellipse;whiteSpace=wrap;html=1;strokeColor=default;align=center;verticalAlign=middle;fontFamily=Helvetica;fontSize=12;fontColor=default;fillColor=default;" vertex="1" parent="1">
          <mxGeometry x="-488" y="-251" width="110" height="50" as="geometry" />
        </mxCell>
        <mxCell id="Nv1itEVapJG6KKWH7zvD-4" value="Sname, City, Status" style="rounded=0;whiteSpace=wrap;html=1;" vertex="1" parent="1">
          <mxGeometry x="-289" y="-331" width="169" height="60" as="geometry" />
        </mxCell>
        <mxCell id="Nv1itEVapJG6KKWH7zvD-7" value="Pname, Pcolor" style="rounded=0;whiteSpace=wrap;html=1;" vertex="1" parent="1">
          <mxGeometry x="-289" y="-256" width="170" height="60" as="geometry" />
        </mxCell>
        <mxCell id="Nv1itEVapJG6KKWH7zvD-12" style="edgeStyle=none;curved=1;rounded=0;orthogonalLoop=1;jettySize=auto;html=1;exitX=1;exitY=0.5;exitDx=0;exitDy=0;entryX=0;entryY=0.5;entryDx=0;entryDy=0;fontSize=12;startSize=8;endSize=8;" edge="1" parent="1" source="Nv1itEVapJG6KKWH7zvD-10" target="Nv1itEVapJG6KKWH7zvD-11">
          <mxGeometry relative="1" as="geometry" />
        </mxCell>
        <mxCell id="Nv1itEVapJG6KKWH7zvD-10" value="(Sno, Pno)" style="ellipse;whiteSpace=wrap;html=1;strokeColor=default;align=center;verticalAlign=middle;fontFamily=Helvetica;fontSize=12;fontColor=default;fillColor=default;" vertex="1" parent="1">
          <mxGeometry x="-485" y="-174" width="110" height="50" as="geometry" />
        </mxCell>
        <mxCell id="Nv1itEVapJG6KKWH7zvD-11" value="Qty" style="rounded=0;whiteSpace=wrap;html=1;" vertex="1" parent="1">
          <mxGeometry x="-289" y="-179" width="170" height="60" as="geometry" />
        </mxCell>
      </root>
    </mxGraphModel>
  </diagram>
  <diagram id="ts83umxtAHAKzpLUBLMv" name="2Nf">
    <mxGraphModel grid="0" page="0" gridSize="10" guides="1" tooltips="1" connect="1" arrows="1" fold="1" pageScale="1" pageWidth="850" pageHeight="1100" math="0" shadow="0">
      <root>
        <mxCell id="0" />
        <mxCell id="1" parent="0" />
      </root>
    </mxGraphModel>
  </diagram>
  <diagram id="tmV0SwrH8iZFxghgOlhX" name="Decomposition">
    <mxGraphModel grid="0" page="0" gridSize="10" guides="1" tooltips="1" connect="1" arrows="1" fold="1" pageScale="1" pageWidth="850" pageHeight="1100" math="0" shadow="0">
      <root>
        <mxCell id="0" />
        <mxCell id="1" parent="0" />
        <mxCell id="4B662ZquHXT4_KUfq2uB-24" value="" style="rounded=0;whiteSpace=wrap;html=1;" vertex="1" parent="1">
          <mxGeometry x="-358" y="312" width="120" height="68" as="geometry" />
        </mxCell>
        <mxCell id="4B662ZquHXT4_KUfq2uB-16" value="" style="rounded=0;whiteSpace=wrap;html=1;" vertex="1" parent="1">
          <mxGeometry x="-358" y="175" width="120" height="69" as="geometry" />
        </mxCell>
        <mxCell id="4B662ZquHXT4_KUfq2uB-10" value="Supplier" style="swimlane;whiteSpace=wrap;html=1;" vertex="1" parent="1">
          <mxGeometry x="-367" y="-58" width="316" height="158" as="geometry" />
        </mxCell>
        <mxCell id="4B662ZquHXT4_KUfq2uB-8" value="" style="rounded=0;whiteSpace=wrap;html=1;" vertex="1" parent="1">
          <mxGeometry x="-358" y="2" width="120" height="69" as="geometry" />
        </mxCell>
        <mxCell id="4B662ZquHXT4_KUfq2uB-5" style="edgeStyle=none;curved=1;rounded=0;orthogonalLoop=1;jettySize=auto;html=1;exitX=1;exitY=0;exitDx=0;exitDy=0;entryX=0;entryY=0.5;entryDx=0;entryDy=0;fontSize=12;startSize=8;endSize=8;" edge="1" parent="1" source="4B662ZquHXT4_KUfq2uB-1" target="4B662ZquHXT4_KUfq2uB-4">
          <mxGeometry relative="1" as="geometry" />
        </mxCell>
        <mxCell id="4B662ZquHXT4_KUfq2uB-6" style="edgeStyle=none;curved=1;rounded=0;orthogonalLoop=1;jettySize=auto;html=1;exitX=1;exitY=0.5;exitDx=0;exitDy=0;entryX=0;entryY=0.5;entryDx=0;entryDy=0;fontSize=12;startSize=8;endSize=8;" edge="1" parent="1" source="4B662ZquHXT4_KUfq2uB-1" target="4B662ZquHXT4_KUfq2uB-3">
          <mxGeometry relative="1" as="geometry" />
        </mxCell>
        <mxCell id="4B662ZquHXT4_KUfq2uB-7" style="edgeStyle=none;curved=1;rounded=0;orthogonalLoop=1;jettySize=auto;html=1;exitX=1;exitY=1;exitDx=0;exitDy=0;entryX=0;entryY=0.5;entryDx=0;entryDy=0;fontSize=12;startSize=8;endSize=8;" edge="1" parent="1" source="4B662ZquHXT4_KUfq2uB-1" target="4B662ZquHXT4_KUfq2uB-2">
          <mxGeometry relative="1" as="geometry" />
        </mxCell>
        <mxCell id="4B662ZquHXT4_KUfq2uB-1" value="Sno" style="ellipse;whiteSpace=wrap;html=1;strokeColor=default;align=center;verticalAlign=middle;fontFamily=Helvetica;fontSize=12;fontColor=default;fillColor=default;" vertex="1" parent="1">
          <mxGeometry x="-353" y="12" width="110" height="50" as="geometry" />
        </mxCell>
        <mxCell id="4B662ZquHXT4_KUfq2uB-2" value="Status" style="rounded=0;whiteSpace=wrap;html=1;" vertex="1" parent="1">
          <mxGeometry x="-179" y="62" width="120" height="31" as="geometry" />
        </mxCell>
        <mxCell id="4B662ZquHXT4_KUfq2uB-3" value="City" style="rounded=0;whiteSpace=wrap;html=1;" vertex="1" parent="1">
          <mxGeometry x="-179" y="22" width="120" height="30" as="geometry" />
        </mxCell>
        <mxCell id="4B662ZquHXT4_KUfq2uB-4" value="Sname" style="rounded=0;whiteSpace=wrap;html=1;" vertex="1" parent="1">
          <mxGeometry x="-179" y="-20" width="120" height="32" as="geometry" />
        </mxCell>
        <mxCell id="4B662ZquHXT4_KUfq2uB-21" style="edgeStyle=none;curved=1;rounded=0;orthogonalLoop=1;jettySize=auto;html=1;exitX=1;exitY=0;exitDx=0;exitDy=0;entryX=0;entryY=0.5;entryDx=0;entryDy=0;fontSize=12;startSize=8;endSize=8;" edge="1" parent="1" source="4B662ZquHXT4_KUfq2uB-11" target="4B662ZquHXT4_KUfq2uB-12">
          <mxGeometry relative="1" as="geometry" />
        </mxCell>
        <mxCell id="4B662ZquHXT4_KUfq2uB-22" style="edgeStyle=none;curved=1;rounded=0;orthogonalLoop=1;jettySize=auto;html=1;exitX=1;exitY=1;exitDx=0;exitDy=0;entryX=0;entryY=0.5;entryDx=0;entryDy=0;fontSize=12;startSize=8;endSize=8;" edge="1" parent="1" source="4B662ZquHXT4_KUfq2uB-11" target="4B662ZquHXT4_KUfq2uB-14">
          <mxGeometry relative="1" as="geometry" />
        </mxCell>
        <mxCell id="4B662ZquHXT4_KUfq2uB-11" value="Pno" style="ellipse;whiteSpace=wrap;html=1;strokeColor=default;align=center;verticalAlign=middle;fontFamily=Helvetica;fontSize=12;fontColor=default;fillColor=default;" vertex="1" parent="1">
          <mxGeometry x="-353" y="184" width="110" height="50" as="geometry" />
        </mxCell>
        <mxCell id="4B662ZquHXT4_KUfq2uB-14" value="Pcolor" style="rounded=0;whiteSpace=wrap;html=1;" vertex="1" parent="1">
          <mxGeometry x="-179" y="211" width="120" height="32" as="geometry" />
        </mxCell>
        <mxCell id="4B662ZquHXT4_KUfq2uB-15" value="Parts" style="swimlane;whiteSpace=wrap;html=1;startSize=23;" vertex="1" parent="1">
          <mxGeometry x="-366" y="137" width="315" height="116" as="geometry" />
        </mxCell>
        <mxCell id="4B662ZquHXT4_KUfq2uB-12" value="Pname" style="rounded=0;whiteSpace=wrap;html=1;" vertex="1" parent="4B662ZquHXT4_KUfq2uB-15">
          <mxGeometry x="187" y="38" width="120" height="32" as="geometry" />
        </mxCell>
        <mxCell id="4B662ZquHXT4_KUfq2uB-20" style="edgeStyle=none;curved=1;rounded=0;orthogonalLoop=1;jettySize=auto;html=1;exitX=1;exitY=0.5;exitDx=0;exitDy=0;entryX=0;entryY=0.5;entryDx=0;entryDy=0;fontSize=12;startSize=8;endSize=8;" edge="1" parent="1" source="4B662ZquHXT4_KUfq2uB-17" target="4B662ZquHXT4_KUfq2uB-19">
          <mxGeometry relative="1" as="geometry" />
        </mxCell>
        <mxCell id="4B662ZquHXT4_KUfq2uB-17" value="(Sno, Pno)" style="ellipse;whiteSpace=wrap;html=1;strokeColor=default;align=center;verticalAlign=middle;fontFamily=Helvetica;fontSize=12;fontColor=default;fillColor=default;" vertex="1" parent="1">
          <mxGeometry x="-353" y="321" width="110" height="50" as="geometry" />
        </mxCell>
        <mxCell id="4B662ZquHXT4_KUfq2uB-19" value="Qty" style="rounded=0;whiteSpace=wrap;html=1;" vertex="1" parent="1">
          <mxGeometry x="-179" y="330" width="120" height="32" as="geometry" />
        </mxCell>
        <mxCell id="4B662ZquHXT4_KUfq2uB-23" value="Supplier_Parts" style="swimlane;whiteSpace=wrap;html=1;" vertex="1" parent="1">
          <mxGeometry x="-366" y="274" width="315" height="115" as="geometry" />
        </mxCell>
      </root>
    </mxGraphModel>
  </diagram>
  <diagram id="aKcsPiiec0s1LNC0ltIt" name="3NF">
    <mxGraphModel dx="920" dy="1007" grid="0" gridSize="10" guides="1" tooltips="1" connect="1" arrows="1" fold="1" page="0" pageScale="1" pageWidth="850" pageHeight="1100" math="0" shadow="0">
      <root>
        <mxCell id="0" />
        <mxCell id="1" parent="0" />
        <mxCell id="MYbSeQodDjJlUTeBS0PL-19" value="" style="rounded=0;whiteSpace=wrap;html=1;" vertex="1" parent="1">
          <mxGeometry x="-3" y="91" width="120" height="60" as="geometry" />
        </mxCell>
        <mxCell id="MYbSeQodDjJlUTeBS0PL-13" value="Supplier_Status" style="swimlane;whiteSpace=wrap;html=1;startSize=23;" vertex="1" parent="1">
          <mxGeometry x="-11" y="270" width="311" height="100" as="geometry" />
        </mxCell>
        <mxCell id="MYbSeQodDjJlUTeBS0PL-12" value="" style="rounded=0;whiteSpace=wrap;html=1;" vertex="1" parent="1">
          <mxGeometry x="-3" y="301" width="120" height="60" as="geometry" />
        </mxCell>
        <mxCell id="MYbSeQodDjJlUTeBS0PL-8" value="Supplier" style="swimlane;whiteSpace=wrap;html=1;" vertex="1" parent="1">
          <mxGeometry x="-11" y="-47" width="311" height="107" as="geometry" />
        </mxCell>
        <mxCell id="MYbSeQodDjJlUTeBS0PL-7" value="" style="rounded=0;whiteSpace=wrap;html=1;" vertex="1" parent="1">
          <mxGeometry x="-3" y="-12" width="120" height="60" as="geometry" />
        </mxCell>
        <mxCell id="MYbSeQodDjJlUTeBS0PL-3" style="edgeStyle=none;curved=1;rounded=0;orthogonalLoop=1;jettySize=auto;html=1;exitX=1;exitY=0;exitDx=0;exitDy=0;fontSize=12;startSize=8;endSize=8;" edge="1" parent="1" source="MYbSeQodDjJlUTeBS0PL-1" target="MYbSeQodDjJlUTeBS0PL-2">
          <mxGeometry relative="1" as="geometry" />
        </mxCell>
        <mxCell id="MYbSeQodDjJlUTeBS0PL-6" style="edgeStyle=none;curved=1;rounded=0;orthogonalLoop=1;jettySize=auto;html=1;exitX=1;exitY=1;exitDx=0;exitDy=0;entryX=0;entryY=0.5;entryDx=0;entryDy=0;fontSize=12;startSize=8;endSize=8;" edge="1" parent="1" source="MYbSeQodDjJlUTeBS0PL-1" target="MYbSeQodDjJlUTeBS0PL-4">
          <mxGeometry relative="1" as="geometry" />
        </mxCell>
        <mxCell id="MYbSeQodDjJlUTeBS0PL-1" value="Sno" style="ellipse;whiteSpace=wrap;html=1;strokeColor=default;align=center;verticalAlign=middle;fontFamily=Helvetica;fontSize=12;fontColor=default;fillColor=default;" vertex="1" parent="1">
          <mxGeometry x="2" y="-7" width="110" height="50" as="geometry" />
        </mxCell>
        <mxCell id="MYbSeQodDjJlUTeBS0PL-2" value="Sname" style="rounded=0;whiteSpace=wrap;html=1;" vertex="1" parent="1">
          <mxGeometry x="170" y="-15" width="120" height="32" as="geometry" />
        </mxCell>
        <mxCell id="MYbSeQodDjJlUTeBS0PL-4" value="City" style="rounded=0;whiteSpace=wrap;html=1;" vertex="1" parent="1">
          <mxGeometry x="170" y="20" width="120" height="32" as="geometry" />
        </mxCell>
        <mxCell id="MYbSeQodDjJlUTeBS0PL-11" style="edgeStyle=none;curved=1;rounded=0;orthogonalLoop=1;jettySize=auto;html=1;exitX=1;exitY=0.5;exitDx=0;exitDy=0;fontSize=12;startSize=8;endSize=8;" edge="1" parent="1" source="MYbSeQodDjJlUTeBS0PL-9" target="MYbSeQodDjJlUTeBS0PL-10">
          <mxGeometry relative="1" as="geometry" />
        </mxCell>
        <mxCell id="MYbSeQodDjJlUTeBS0PL-9" value="Sno" style="ellipse;whiteSpace=wrap;html=1;strokeColor=default;align=center;verticalAlign=middle;fontFamily=Helvetica;fontSize=12;fontColor=default;fillColor=default;" vertex="1" parent="1">
          <mxGeometry x="2" y="306" width="110" height="50" as="geometry" />
        </mxCell>
        <mxCell id="MYbSeQodDjJlUTeBS0PL-10" value="Status" style="rounded=0;whiteSpace=wrap;html=1;" vertex="1" parent="1">
          <mxGeometry x="170" y="315" width="120" height="32" as="geometry" />
        </mxCell>
        <mxCell id="MYbSeQodDjJlUTeBS0PL-17" style="edgeStyle=none;curved=1;rounded=0;orthogonalLoop=1;jettySize=auto;html=1;exitX=1;exitY=0;exitDx=0;exitDy=0;entryX=0;entryY=0.5;entryDx=0;entryDy=0;fontSize=12;startSize=8;endSize=8;" edge="1" parent="1" source="MYbSeQodDjJlUTeBS0PL-14" target="MYbSeQodDjJlUTeBS0PL-15">
          <mxGeometry relative="1" as="geometry" />
        </mxCell>
        <mxCell id="MYbSeQodDjJlUTeBS0PL-18" style="edgeStyle=none;curved=1;rounded=0;orthogonalLoop=1;jettySize=auto;html=1;exitX=1;exitY=1;exitDx=0;exitDy=0;entryX=0;entryY=0.5;entryDx=0;entryDy=0;fontSize=12;startSize=8;endSize=8;" edge="1" parent="1" source="MYbSeQodDjJlUTeBS0PL-14" target="MYbSeQodDjJlUTeBS0PL-16">
          <mxGeometry relative="1" as="geometry" />
        </mxCell>
        <mxCell id="MYbSeQodDjJlUTeBS0PL-14" value="Pno" style="ellipse;whiteSpace=wrap;html=1;strokeColor=default;align=center;verticalAlign=middle;fontFamily=Helvetica;fontSize=12;fontColor=default;fillColor=default;" vertex="1" parent="1">
          <mxGeometry x="2" y="96" width="110" height="50" as="geometry" />
        </mxCell>
        <mxCell id="MYbSeQodDjJlUTeBS0PL-15" value="Pname" style="rounded=0;whiteSpace=wrap;html=1;" vertex="1" parent="1">
          <mxGeometry x="170" y="87" width="120" height="32" as="geometry" />
        </mxCell>
        <mxCell id="MYbSeQodDjJlUTeBS0PL-16" value="Pcolor" style="rounded=0;whiteSpace=wrap;html=1;" vertex="1" parent="1">
          <mxGeometry x="170" y="123" width="120" height="32" as="geometry" />
        </mxCell>
        <mxCell id="MYbSeQodDjJlUTeBS0PL-20" value="Parts" style="swimlane;whiteSpace=wrap;html=1;" vertex="1" parent="1">
          <mxGeometry x="-11" y="60" width="311" height="210" as="geometry" />
        </mxCell>
        <mxCell id="MYbSeQodDjJlUTeBS0PL-24" value="" style="rounded=0;whiteSpace=wrap;html=1;" vertex="1" parent="MYbSeQodDjJlUTeBS0PL-20">
          <mxGeometry x="8" y="142" width="120" height="60" as="geometry" />
        </mxCell>
        <mxCell id="MYbSeQodDjJlUTeBS0PL-23" style="edgeStyle=none;curved=1;rounded=0;orthogonalLoop=1;jettySize=auto;html=1;exitX=1;exitY=0.5;exitDx=0;exitDy=0;entryX=0;entryY=0.5;entryDx=0;entryDy=0;fontSize=12;startSize=8;endSize=8;" edge="1" parent="MYbSeQodDjJlUTeBS0PL-20" source="MYbSeQodDjJlUTeBS0PL-21" target="MYbSeQodDjJlUTeBS0PL-22">
          <mxGeometry relative="1" as="geometry" />
        </mxCell>
        <mxCell id="MYbSeQodDjJlUTeBS0PL-21" value="(Sno, Pno)" style="ellipse;whiteSpace=wrap;html=1;strokeColor=default;align=center;verticalAlign=middle;fontFamily=Helvetica;fontSize=12;fontColor=default;fillColor=default;" vertex="1" parent="MYbSeQodDjJlUTeBS0PL-20">
          <mxGeometry x="13" y="147" width="110" height="50" as="geometry" />
        </mxCell>
        <mxCell id="MYbSeQodDjJlUTeBS0PL-22" value="Qty" style="rounded=0;whiteSpace=wrap;html=1;" vertex="1" parent="MYbSeQodDjJlUTeBS0PL-20">
          <mxGeometry x="181" y="156" width="120" height="32" as="geometry" />
        </mxCell>
        <mxCell id="MYbSeQodDjJlUTeBS0PL-25" value="Supplier_Parts" style="swimlane;whiteSpace=wrap;html=1;" vertex="1" parent="MYbSeQodDjJlUTeBS0PL-20">
          <mxGeometry y="112" width="311" height="98" as="geometry" />
        </mxCell>
      </root>
    </mxGraphModel>
  </diagram>
</mxfile>
